<?xml version="1.0" encoding="utf-8"?>
<!-- Generator: Adobe Illustrator 19.0.0, SVG Export Plug-In . SVG Version: 6.00 Build 0)  -->
<svg version="1.1" id="Слой_1" xmlns="http://www.w3.org/2000/svg" xmlns:xlink="http://www.w3.org/1999/xlink" x="0px" y="0px"
	 viewBox="0 0 184.6 188.9" style="enable-background:new 0 0 184.6 188.9;" xml:space="preserve">
<style type="text/css">
	.st0{fill:#FFFFFF;}
</style>
<path class="st0" d="M93.3,2c51.3,0,92.4,41.2,92.3,92.4c-0.1,51.3-41.4,92.4-92.5,92.2c-51.2-0.2-91.9-41-92.1-92.1
	C0.8,43.3,42,2,93.3,2z M93.3,118.1c0,6.9-0.4,13.3,0.2,19.5c0.2,2.6,1.7,5.8,3.7,7.3c2.6,1.9,5.1-0.4,7.2-2.6
	c12.5-12.6,25.2-25.2,37.8-37.8c3.4-3.4,6.6-6.8,10.1-10.4c-16-16-31.5-31.5-47-47c-2.4-2.4-4.5-5.4-8.4-3.8c-4.1,1.7-3.5,5.6-3.6,9
	c-0.1,5.9,0,11.9,0,17.9c-1.4,0.1-2.2,0.2-3.1,0.2c-11.2,0-22.3-0.1-33.5,0c-7.9,0.1-10.5,2.7-10.5,10.5c0,8.3,0,16.6,0,25
	c0,9.9,2.2,12.1,11.9,12.1C69.6,118.1,81.1,118.1,93.3,118.1z"/>
</svg>
