<?xml version="1.0" encoding="utf-8"?>
<!-- Generator: Adobe Illustrator 19.0.0, SVG Export Plug-In . SVG Version: 6.00 Build 0)  -->
<svg version="1.1" id="Слой_1" xmlns="http://www.w3.org/2000/svg" xmlns:xlink="http://www.w3.org/1999/xlink" x="0px" y="0px"
	 viewBox="0 0 557 523.9" style="enable-background:new 0 0 557 523.9;" xml:space="preserve">
<style type="text/css">
	.st0{fill:#FFFFFF;}
</style>
<g>
	<path class="st0" d="M17.6,272.6c1-4.6,1.9-9.3,3.1-13.9c10.1-38.2,45.4-65.6,84.9-65.7c14.8,0,29.6-1.1,44.2,2.7
		c39,10.1,66.5,44.7,67,85c0.2,13.1,0,26.2,0,39.4c-6.2,1.2-10.5,0.6-14.4-5.2c-15.8-23.4-32.1-46.5-48.7-69.3
		c-17.9-24.7-49.6-31-74.6-15.2c-25.9,16.3-34.2,50.7-17.1,76c23.6,34.8,47.9,69,72.5,103.1c10.4,14.4,25.5,21.1,43.2,21.5
		c12.7,0.3,25.5,0.1,38.6,0.1c0,20.6,0,40.9,0,62c-2.4,0-4.9,0-7.4,0c-62.3,0-23.2,0-85.5,0c-1.5,0-104.4-87.5-105.9-87.4
		C17.6,331.9,17.6,346.1,17.6,272.6z"/>
	<path class="st0" d="M540.4,279.7c-14,29.8-27.9,59.7-42,89.4c-16.6,34.8-33.5,69.5-50,104.3c-6.5,13.7-16.6,20.1-31.8,20.1
		c-49.7-0.2-99.3,0-149-0.1c-13.3,0-24-7.7-28.3-19.6c-4.2-11.7-0.8-24.7,8.7-32.9c6.2-5.4,13.6-7.2,21.7-7.2
		c41.8,0.1,83.7,0,125.5,0.2c4.4,0,6.5-1.4,8.4-5.3c26.1-54.7,52.4-109.4,78.6-164.1c6.7-14,16.9-20.4,30.9-19.5
		c12.6,0.8,22.1,9.2,26.7,23.7c0.1,0.3,0.4,0.5,0.6,0.8C540.4,272.9,540.4,276.3,540.4,279.7z"/>
	<path class="st0" d="M120.1,105c0.4-51.4,42-92.5,93.4-92c51.1,0.4,92.3,42.2,91.8,93.1c-0.4,51.2-42.3,92.3-93.7,91.9
		C161,197.6,119.7,155.6,120.1,105z"/>
	<path class="st0" d="M257,413c-25.3,0-50.7-0.2-76,0.1c-15.2,0.1-26.7-5.8-35.4-18.3c-22.1-31.8-44.6-63.4-66.9-95.1
		c-12.6-17.9-9.3-40.8,7.6-53c17.5-12.6,40.4-8.6,53.4,9.7c18.3,25.8,36.5,51.7,54.5,77.6c2.2,3.2,4.5,4.3,8.3,4.2
		c44.1-0.1,88.1-0.1,132.2,0c23,0,39.5,17.6,38.3,40.4c-0.9,17.3-15,32.9-32.4,33.9c-17,1-34,0.5-51,0.6
		C278.8,413.1,267.9,413,257,413C257,413,257,413,257,413z"/>
</g>
</svg>
